<?xml version="1.0" encoding="utf-8"?>
<!-- Generator: Adobe Illustrator 26.0.3, SVG Export Plug-In . SVG Version: 6.00 Build 0)  -->
<svg version="1.0" id="katman_1" xmlns="http://www.w3.org/2000/svg" xmlns:xlink="http://www.w3.org/1999/xlink" x="0px" y="0px"
	 viewBox="0 0 800 600" style="enable-background:new 0 0 800 600;" xml:space="preserve">
<g>
	<path d="M260.5,284.9v-57.7c0-1.3,2.1-3.2,2.8-3.2v-2.3h-15.8v2.5c1.2,0,3.2,1.7,3.2,3.5v76c0,1.3-1,4.9-3,5.3v1.8h27.5v-36.6h-2.5
		c0,0-3.1,30.4-12,31L260.5,284.9L260.5,284.9z"/>
	<path d="M409.3,310.8h-12.9v-1.7c0.7,0,2.8-1.6,2.8-3v-78.4c0-2.8-1.8-4.5-2.7-4.5v-1.4h13.8l8,52.9v-47.1c0-2.3-1.2-4.3-2.5-4.3
		v-1.5h11.7v1.4c-0.5,0-2.5,1.7-2.5,5.3V311h-8.9l-9.6-59.7v54.6c0,2,1.9,3.5,2.7,3.5L409.3,310.8L409.3,310.8z"/>
	<path d="M84.5,226.3v78.1c0,4.1-2.9,4.6-3.5,4.6v1.8h16.7v-1.7c-1.5,0-3.5-1.8-3.5-5v-38.2c4.9,0,6.6,12.3,6.6,15.4h2.6v-37H101
		c0,8.2-1.7,13.6-6.6,13.6v-30.7h1.7c8.8,0,11.1,25,11.1,25h2.5v-30.5H80.9v1.7C82.9,223.3,84.5,224.6,84.5,226.3z"/>
	<path d="M364.9,310.8h-12.5v-2c3.5-0.5,3.4-4.1,3.4-4.1l7.3-83h10c0,0,5.4,82.7,5.6,83.8c0.2,1.7,1.7,3.4,2.9,3.4v1.9h-14.9v-1.9
		c2.3-0.6,2.7-2.8,2.7-3.8c0-1-0.5-11.7-0.5-11.7h-5.3c0,0-0.6,8.7-0.9,11.6c-0.3,2.8,1.5,4,2.3,4L364.9,310.8L364.9,310.8
		L364.9,310.8z M364,287.3h4.7l-1.9-36.6L364,287.3L364,287.3z"/>
	<path d="M315.5,260.8v43.6c0,4.1-2.9,4.6-3.5,4.6v1.8h17.5v-1.7c-1.5,0-3.5-1.8-3.5-5v-38.2c5.4,0,6.4,12.3,6.4,15.4h2.5v-37h-2.5
		c0,8.2-1.7,13.6-6.4,13.6v-30.7h1.7c9.5,0,12.2,25,12.2,25h2.5v-30.5h-30.5v1.7c2,0,3.7,1.3,3.7,3
		C315.5,226.3,315.5,260.8,315.5,260.8z"/>
	<path d="M172.4,309.2c-0.8,0-2.8-1.5-2.8-3.5v-54.6l10.1,59.7h8.9v-82.4c0-3.6,1.9-5.3,2.4-5.3v-1.4h-11.7v1.6c1.3,0,2.6,2,2.6,4.3
		v47.1l-8.5-52.9h-13.6v1.4c0.9,0,2.7,1.7,2.7,4.5V306c0,1.5-2.1,3-2.8,3v1.7h12.6L172.4,309.2L172.4,309.2z"/>
	<path d="M140.5,308.8c-1.1,0-2.8-1.2-2.8-3.2v-77.5c0-3.7,2.2-5,2.8-5v-1.5h-15.4v1.6c1.1,0,3.1,2.1,3.1,4.9v77.3
		c0,2.2-2.2,3.5-3.1,3.5v1.9h15.4C140.5,310.8,140.5,308.8,140.5,308.8z"/>
	<path d="M216.9,310.8H204v-2c3.5-0.5,3.3-4.1,3.3-4.1l7.6-83h9.7c0,0,5.3,82.7,5.4,83.8c0.2,1.7,1.7,3.4,3,3.4v1.9h-14.7v-1.9
		c2.4-0.6,2.8-2.8,2.7-3.8c0-1-0.4-11.7-0.4-11.7h-5c0,0-0.7,8.7-0.9,11.6c-0.3,2.8,1.5,4,2.3,4L216.9,310.8L216.9,310.8z
		 M215.9,287.3h4.4l-1.6-36.6L215.9,287.3z"/>
	<path d="M499.1,310.8h-12.5v-2c3.4-0.5,3.3-4.1,3.3-4.1l7.2-83h10.2c0,0,5.4,82.7,5.6,83.8c0.2,1.7,1.6,3.4,2.9,3.4v1.9h-14.5v-1.9
		c2.3-0.6,2.8-2.8,2.7-3.8c0-1-0.4-11.7-0.4-11.7h-5.8c0,0-0.7,8.7-1,11.6c-0.3,2.8,1.5,4,2.3,4L499.1,310.8L499.1,310.8
		L499.1,310.8z M498.1,287.3h5.2l-1.7-36.6L498.1,287.3z"/>
	<path d="M455.3,229.9v74.5c0,3.3-1.3,4.5-2.7,4.5v1.7h13.7V309c-1.6,0-2.2-2.7-2.2-4.7v-74.4c4.3,5.2,6.3,23.3,6.3,23.3h3.1
		l-0.5-31.5h-27l-0.9,31.5h3C448.1,253.1,451.1,233.7,455.3,229.9z"/>
	<path d="M577,227.8c0.3,2.2,6.5,47.4,6.5,47.4v29.3c0,2.7-1.8,4.5-2.9,4.5v1.7h15.1v-1.7c-1.2,0.1-2.8-3-2.8-4.5v-29.1
		c0,0,6.3-47.7,6.5-49.2c0.2-1.6,2.1-2.4,3.4-2.4v-2.1h-13.7v1.9c1.1,0,2.5,1.7,2.3,4.1s-3.2,28.7-3.2,28.7s-2.7-28.8-2.8-30.2
		c-0.2-1.4,1.3-2.6,2.3-2.6v-1.9H574v1.9C575.3,223.7,576.7,225.7,577,227.8z"/>
	<path d="M545.6,272.5c3.8,7.8,3.1,16.6,3.1,19c0,2.3-0.2,10.6-1.7,13.8c-0.3,0.5-1.9,0.8-2.4-0.1c-0.9-1.3-1.6-3.7-1.5-13.8
		c0-7.2,0.4-13,1.7-18l-11.2,6.5c0,0-0.8,4.6-0.3,13.8c0.7,13.6,5.4,18.5,13,18.5c8.7,0,12.2-6.8,12.5-21.4
		c0.2-7.8-2.3-17.3-4.3-21.6c-2-4.1-6.7-9.9-9.8-17.4c-1.7-4-2.5-10.4-2.5-13.9c0-3.6,0.3-8.2,0.7-9.6c0.4-1.4,2.2-3,3.4-0.1
		c0.6,1.5,2.3,10.4,0.1,23.4l9.5-5.1c0,0,1-18.6-2.8-22.4c-2.1-2-4.5-3.5-8.7-3.5c-4.2,0-8,2.3-9.4,5c-2.9,5.7-2.1,20.9-0.1,26.9
		C537.4,259.8,541.1,263.1,545.6,272.5L545.6,272.5z"/>
	<path d="M680.8,309c-1.1,0-2.8-1.2-2.8-3.2v-77.2c0-3.7,2.2-5,2.8-5v-1.8h-14.3v1.9c1.1,0,3.1,2.1,3.1,4.9v77.1
		c0,2.2-2.2,3.5-3.1,3.5v1.9h14.3V309L680.8,309z"/>
	<path d="M635.6,221.7h15v1.8c0,0-1.7,0.6-2.5,1.3c-0.9,0.7-1.7,2-1.5,3c0.2,1,3.4,17.3,3.4,17.3s3.8-17.7,4-18.6
		c0.2-0.9,0.1-2.6-1.2-3v-1.8h11.7v1.8c0,0-2.1,0.5-3,1.7c-1,1.1-1.5,3-1.7,4c-0.2,1-6.5,35.1-6.5,35.1s6.5,37.1,6.8,38.4
		c0.3,2.3,2,5.7,4.6,6.3v1.8h-15.2v-1.8c0,0,2.3-0.6,3-2.4c0.8-1.8,0.3-4.3,0.2-4.6c-0.1-0.3-3.6-16.8-3.6-16.8s-3.8,18.2-4,18.9
		c-0.2,0.7-0.2,4.3,2.3,5v1.9h-11.7v-1.8c0,0,2.8-0.8,3.4-4c0.6-3.3,6.8-37.7,6.8-37.7s-6.4-37.7-6.7-39c-0.2-1.3-0.9-3.7-3.8-4.6
		L635.6,221.7L635.6,221.7L635.6,221.7z"/>
	<path d="M707.1,221.7v1.9c0.8,0,2.3,1.1,2.1,4c-0.3,2.9-8,54.2-8,54.2s-8.2-53.2-8.2-54.3s0.3-3.3,2.4-3.8v-1.9h-13.3v1.9
		c1.1,0,2.5,1.7,2.6,3.4c0.1,0.9,7.3,55.4,10.1,76v2.4c0,2.2-2,3.5-2.9,3.5v1.9h6.5v-0.1h2.9v0.1h6.4V309c-1,0-2.4-1.2-2.5-3.2
		l10.4-78c0,0-0.1-3.6,3-4.1v-2L707.1,221.7L707.1,221.7z"/>
	<path d="M614.2,309.8c-3.1,0-5.7-2.5-5.7-5.7c0-3.1,2.5-5.7,5.7-5.7c3.1,0,5.7,2.5,5.7,5.7C619.8,307.3,617.3,309.8,614.2,309.8z
		 M614.2,311.1c3.8,0,6.9-3,6.9-7c0-3.8-3-6.9-6.9-6.9c-3.8,0-7,3-7,6.9S610.3,311.1,614.2,311.1z M613.7,304.6c0.4,0,0.9,0,1.1,0.3
		c0.3,0.3,0.3,1,0.4,1.7c0.1,0.4,0.2,1,0.3,1.5h1.7c-0.3-0.7-0.3-1.6-0.4-2.3c-0.2-0.9-0.3-1.4-1.4-1.6c1-0.3,1.7-1,1.7-1.9
		c0-1.8-1.6-2.3-3-2.3h-2.6v8.1h1.3v-3.5L613.7,304.6L613.7,304.6z M612.7,303.3v-2.1h1.6c1,0,1.3,0.3,1.3,1s-0.3,1.1-1.5,1.1H612.7
		z"/>
	<path d="M614.2,309.8c-3.1,0-5.7-2.5-5.7-5.7c0-3.1,2.5-5.7,5.7-5.7c3.1,0,5.7,2.5,5.7,5.7C619.8,307.3,617.3,309.8,614.2,309.8z
		 M614.2,311.1c3.8,0,6.9-3,6.9-7c0-3.8-3-6.9-6.9-6.9c-3.8,0-7,3-7,6.9S610.3,311.1,614.2,311.1z M613.7,304.6c0.4,0,0.9,0,1.1,0.3
		c0.3,0.3,0.3,1,0.4,1.7c0.1,0.4,0.2,1,0.3,1.5h1.7c-0.3-0.7-0.3-1.6-0.4-2.3c-0.2-0.9-0.3-1.4-1.4-1.6c1-0.3,1.7-1,1.7-1.9
		c0-1.8-1.6-2.3-3-2.3h-2.6v8.1h1.3v-3.5L613.7,304.6L613.7,304.6z M612.7,303.3v-2.1h1.6c1,0,1.3,0.3,1.3,1s-0.3,1.1-1.5,1.1H612.7
		z"/>
	<path d="M306.3,341.9c-8.3,0-11.4-4.9-11.4-10.4s3.1-10.6,11.4-10.6h9c8.2,0,11.4,5,11.4,10.6s-3.2,10.4-11.4,10.4H306.3z
		 M307.2,324.8c-4.8,0-7.5,2.4-7.5,6.7s2.7,6.7,7.5,6.7h7.2c4.7,0,7.5-2.4,7.5-6.7s-2.8-6.7-7.5-6.7H307.2z"/>
	<path d="M368.3,341.7h-5.4l-19.5-15.4v15.4h-4.9v-20.5h5.9l19,15v-15h4.9L368.3,341.7L368.3,341.7z"/>
	<path d="M407.6,337.8v4h-26.3v-20.5h4.9v16.5H407.6z"/>
	<path d="M420.6,321.2h4.9v20.5h-4.9V321.2z"/>
	<path d="M468.4,341.7H463l-19.5-15.4v15.4h-4.9v-20.5h5.9l19,15v-15h4.9L468.4,341.7L468.4,341.7z"/>
	<path d="M485.7,325.2v4.4h21.9v3.8h-21.9v4.4h23.7v4h-28.5v-20.5h28.6v4h-23.8V325.2L485.7,325.2z"/>
	<g>
		<path d="M408.5,371.3c-88.5,0-167.9-37.8-221.5-97.6c52.5,63.9,132.3,104.7,221.5,104.7s169-40.8,221.5-104.7
			C576.4,333.5,497,371.3,408.5,371.3L408.5,371.3z"/>
	</g>
</g>
</svg>
